<?xml version="1.0" encoding="utf-8"?>
<!-- Generator: Adobe Illustrator 18.1.1, SVG Export Plug-In . SVG Version: 6.00 Build 0)  -->
<svg version="1.1" id="Layer_1" xmlns="http://www.w3.org/2000/svg" xmlns:xlink="http://www.w3.org/1999/xlink" x="0px" y="0px"
	 viewBox="0 0 757.2 115" enable-background="new 0 0 757.2 115" xml:space="preserve">
<g>
	<g>
		<g>
			<path fill="#FFFFFF" d="M111.6,120.2L81.2,50.9l-28.5,69.3L0,0h19.8l32.4,75.8l19.1-47.8l9.3-23.7l10.1,23.4l20.5,48.1L141.4,0
				h19.7L111.6,120.2z"/>
			<path fill="#FFFFFF" d="M197.5,46.8h42v16.3h-42v35.7h51V115h-51.2h-17.8V0h17.8h51.2v16.1h-51V46.8z"/>
			<path fill="#FFFFFF" d="M343.7,16.1h-31.6V115h-18.1V16.1h-31.6V0h81.4V16.1z"/>
			<path fill="#FFFFFF" d="M442.1,115h-18V65.4h-45.9V115h-18V0h18v49.1h45.9V0h18V115z"/>
			<path fill="#FFFFFF" d="M546.6,115h-20.3l-29-38.9h-13.2V115h-18V0h15.2h18.9c15.2,0,24,6.2,28.7,11.5c6,6.7,9.3,16,9.3,26.7
				c0,10.5-3.3,19.8-9.3,26.5c-2.8,3.1-7.1,6.7-13.3,8.8L546.6,115z M500.3,60c7.4,0,13-2.2,16.6-6.2c4.3-4.7,5.1-11.2,5.1-15.7
				c0-4.7-0.8-11.2-5.1-15.8c-3.6-4-9.1-6-16.6-6h-16.1V60H500.3z"/>
			<path fill="#FFFFFF" d="M578.7,46.8h42v16.3h-42v35.7h51V115h-51.2h-17.8V0h17.8h51.2v16.1h-51V46.8z"/>
			<path fill="#FFFFFF" d="M668.9,46.8h42v16.3h-42v35.7h51V115h-51.2H651V0h17.8H720v16.1h-51V46.8z"/>
		</g>
		<rect x="741.3" y="1.3" fill="#28A8E0" width="15.8" height="15.8"/>
		<g id="XMLID_2_">
			<g>
				<rect x="741.4" y="50.2" fill="#28A8E0" width="15.8" height="15.8"/>
			</g>
			<g>
			</g>
		</g>
		<g id="XMLID_1_">
			<g>
				<rect x="741.4" y="98.2" fill="#28A8E0" width="15.8" height="15.8"/>
			</g>
			<g>
			</g>
		</g>
	</g>
	<g display="none">
		<path display="inline" fill="#231F20" d="M137.5,169.6v-11.9h3.3c1,0,1.8,0.2,2.6,0.7c0.8,0.4,1.4,1.1,1.8,1.9
			c0.4,0.8,0.6,1.8,0.6,2.8v1.1c0,1.1-0.2,2-0.6,2.8s-1,1.5-1.8,1.9s-1.7,0.7-2.7,0.7H137.5z M138.5,158.6v10.2h2.3
			c1.3,0,2.3-0.4,3-1.2s1.1-2,1.1-3.4v-1c0-1.4-0.4-2.5-1.1-3.3c-0.7-0.8-1.7-1.2-2.9-1.2H138.5z"/>
		<path display="inline" fill="#231F20" d="M159,169.8c-0.8,0-1.4-0.2-2-0.6s-1.1-0.9-1.4-1.5s-0.5-1.4-0.5-2.2v-0.4
			c0-0.8,0.2-1.6,0.5-2.3s0.8-1.2,1.4-1.6c0.6-0.4,1.2-0.6,1.9-0.6c1.1,0,1.9,0.4,2.6,1.1s0.9,1.7,0.9,3v0.5H156v0.2
			c0,1,0.3,1.8,0.9,2.5s1.3,1,2.2,1c0.5,0,1-0.1,1.4-0.3c0.4-0.2,0.8-0.5,1.1-0.9l0.6,0.5C161.4,169.3,160.4,169.8,159,169.8z
			 M158.8,161.5c-0.7,0-1.4,0.3-1.9,0.8s-0.8,1.3-0.9,2.2h5.3v-0.1c0-0.8-0.3-1.5-0.7-2.1C160.2,161.7,159.6,161.5,158.8,161.5z"/>
		<path display="inline" fill="#231F20" d="M176.9,167.4c0-0.5-0.2-0.9-0.6-1.2s-1-0.5-1.8-0.7s-1.4-0.4-1.8-0.6
			c-0.4-0.2-0.8-0.5-1-0.8c-0.2-0.3-0.3-0.7-0.3-1.1c0-0.7,0.3-1.3,0.9-1.7c0.6-0.5,1.3-0.7,2.2-0.7c1,0,1.8,0.2,2.4,0.7
			s0.9,1.1,0.9,1.9h-1c0-0.5-0.2-0.9-0.6-1.3c-0.4-0.3-1-0.5-1.6-0.5c-0.6,0-1.2,0.1-1.5,0.4c-0.4,0.3-0.6,0.7-0.6,1.1
			c0,0.4,0.2,0.8,0.5,1c0.3,0.2,0.9,0.5,1.8,0.7s1.5,0.4,1.9,0.6c0.4,0.2,0.7,0.5,1,0.8c0.2,0.3,0.3,0.7,0.3,1.2
			c0,0.7-0.3,1.3-0.9,1.8c-0.6,0.4-1.4,0.7-2.4,0.7c-1,0-1.9-0.2-2.5-0.7c-0.6-0.5-1-1.1-1-1.9h1c0,0.6,0.3,1,0.7,1.3
			c0.4,0.3,1,0.5,1.8,0.5c0.7,0,1.2-0.2,1.6-0.4C176.7,168.2,176.9,167.9,176.9,167.4z"/>
		<path display="inline" fill="#231F20" d="M187.3,158.3c0-0.2,0.1-0.3,0.2-0.5c0.1-0.1,0.3-0.2,0.5-0.2c0.2,0,0.4,0.1,0.5,0.2
			c0.1,0.1,0.2,0.3,0.2,0.5c0,0.2-0.1,0.3-0.2,0.5c-0.1,0.1-0.3,0.2-0.5,0.2c-0.2,0-0.4-0.1-0.5-0.2
			C187.4,158.6,187.3,158.4,187.3,158.3z M188.5,169.6h-1v-8.8h1V169.6z"/>
		<path display="inline" fill="#231F20" d="M198.1,165.1c0-1.4,0.3-2.5,0.9-3.3s1.4-1.2,2.5-1.2c1.2,0,2.1,0.5,2.7,1.4l0-1.3h0.9
			v8.7c0,1.1-0.3,2-1,2.7c-0.6,0.7-1.5,1-2.6,1c-0.6,0-1.2-0.1-1.8-0.4c-0.6-0.3-1-0.6-1.3-1.1l0.5-0.6c0.7,0.8,1.5,1.3,2.5,1.3
			c0.8,0,1.5-0.2,1.9-0.7c0.5-0.5,0.7-1.2,0.7-2v-1.1c-0.6,0.9-1.5,1.3-2.7,1.3c-1,0-1.8-0.4-2.5-1.2s-0.9-1.9-0.9-3.3V165.1z
			 M199.1,165.3c0,1.1,0.2,2,0.7,2.7c0.5,0.7,1.1,1,1.9,1c1.2,0,2.1-0.5,2.6-1.6v-4.1c-0.2-0.6-0.6-1-1-1.3s-0.9-0.4-1.6-0.4
			c-0.8,0-1.5,0.3-1.9,1S199.1,164.1,199.1,165.3z"/>
		<path display="inline" fill="#231F20" d="M216.1,160.8l0,1.5c0.3-0.5,0.7-1,1.2-1.2c0.5-0.3,1-0.4,1.6-0.4c0.9,0,1.7,0.3,2.1,0.8
			c0.5,0.5,0.7,1.3,0.7,2.4v5.8h-1v-5.8c0-0.8-0.2-1.4-0.5-1.8c-0.3-0.4-0.9-0.6-1.6-0.6c-0.6,0-1.1,0.2-1.6,0.6
			c-0.5,0.4-0.8,0.9-1,1.5v6.1h-1v-8.8H216.1z"/>
	</g>
	<g display="none">
		<path display="inline" fill="#231F20" d="M297.9,169.6v-11.9h3.3c1,0,1.8,0.2,2.6,0.7c0.8,0.4,1.4,1.1,1.8,1.9
			c0.4,0.8,0.6,1.8,0.6,2.8v1.1c0,1.1-0.2,2-0.6,2.8s-1,1.5-1.8,1.9s-1.7,0.7-2.7,0.7H297.9z M298.9,158.6v10.2h2.3
			c1.3,0,2.3-0.4,3-1.2s1.1-2,1.1-3.4v-1c0-1.4-0.4-2.5-1.1-3.3c-0.7-0.8-1.7-1.2-2.9-1.2H298.9z"/>
		<path display="inline" fill="#231F20" d="M319.4,169.8c-0.8,0-1.4-0.2-2-0.6s-1.1-0.9-1.4-1.5s-0.5-1.4-0.5-2.2v-0.4
			c0-0.8,0.2-1.6,0.5-2.3s0.8-1.2,1.4-1.6c0.6-0.4,1.2-0.6,1.9-0.6c1.1,0,1.9,0.4,2.6,1.1s0.9,1.7,0.9,3v0.5h-6.3v0.2
			c0,1,0.3,1.8,0.9,2.5s1.3,1,2.2,1c0.5,0,1-0.1,1.4-0.3c0.4-0.2,0.8-0.5,1.1-0.9l0.6,0.5C321.8,169.3,320.8,169.8,319.4,169.8z
			 M319.2,161.5c-0.7,0-1.4,0.3-1.9,0.8s-0.8,1.3-0.9,2.2h5.3v-0.1c0-0.8-0.3-1.5-0.7-2.1C320.6,161.7,320,161.5,319.2,161.5z"/>
		<path display="inline" fill="#231F20" d="M334.6,168.3l2.7-7.5h1l-3.3,8.8h-0.8l-3.3-8.8h1L334.6,168.3z"/>
		<path display="inline" fill="#231F20" d="M350.6,169.8c-0.8,0-1.4-0.2-2-0.6s-1.1-0.9-1.4-1.5s-0.5-1.4-0.5-2.2v-0.4
			c0-0.8,0.2-1.6,0.5-2.3s0.8-1.2,1.4-1.6c0.6-0.4,1.2-0.6,1.9-0.6c1.1,0,1.9,0.4,2.6,1.1s0.9,1.7,0.9,3v0.5h-6.3v0.2
			c0,1,0.3,1.8,0.9,2.5s1.3,1,2.2,1c0.5,0,1-0.1,1.4-0.3c0.4-0.2,0.8-0.5,1.1-0.9l0.6,0.5C353,169.3,352,169.8,350.6,169.8z
			 M350.4,161.5c-0.7,0-1.4,0.3-1.9,0.8s-0.8,1.3-0.9,2.2h5.3v-0.1c0-0.8-0.3-1.5-0.7-2.1C351.8,161.7,351.2,161.5,350.4,161.5z"/>
		<path display="inline" fill="#231F20" d="M364.3,169.6h-1v-12.5h1V169.6z"/>
		<path display="inline" fill="#231F20" d="M373.7,165.1c0-0.8,0.2-1.6,0.5-2.3s0.8-1.2,1.4-1.6c0.6-0.4,1.3-0.6,2-0.6
			c1.2,0,2.1,0.4,2.9,1.2c0.7,0.8,1.1,1.9,1.1,3.3v0.2c0,0.9-0.2,1.6-0.5,2.3c-0.3,0.7-0.8,1.2-1.4,1.6c-0.6,0.4-1.3,0.6-2,0.6
			c-1.2,0-2.1-0.4-2.9-1.2c-0.7-0.8-1.1-1.9-1.1-3.3V165.1z M374.7,165.4c0,1.1,0.3,1.9,0.8,2.6c0.5,0.7,1.3,1,2.2,1
			c0.9,0,1.6-0.3,2.1-1c0.5-0.7,0.8-1.6,0.8-2.7v-0.2c0-0.7-0.1-1.3-0.4-1.9c-0.3-0.6-0.6-1-1.1-1.3c-0.5-0.3-1-0.5-1.6-0.5
			c-0.9,0-1.6,0.3-2.1,1c-0.6,0.7-0.8,1.6-0.8,2.7V165.4z"/>
		<path display="inline" fill="#231F20" d="M398.1,165.3c0,1.4-0.3,2.5-0.9,3.3c-0.6,0.8-1.4,1.2-2.4,1.2c-1.2,0-2.1-0.4-2.8-1.3
			v4.5h-1v-12.2h0.9l0,1.2c0.6-0.9,1.6-1.4,2.8-1.4c1.1,0,1.9,0.4,2.5,1.2c0.6,0.8,0.9,1.9,0.9,3.3V165.3z M397.1,165.1
			c0-1.1-0.2-2-0.7-2.7c-0.5-0.7-1.1-1-1.9-1c-0.6,0-1.1,0.1-1.5,0.4c-0.4,0.3-0.8,0.7-1,1.3v4.2c0.2,0.5,0.6,0.9,1,1.2
			s1,0.4,1.5,0.4c0.8,0,1.5-0.3,1.9-1S397.1,166.4,397.1,165.1z"/>
		<path display="inline" fill="#231F20" d="M408.5,160.8l0,1.4c0.3-0.5,0.7-0.9,1.2-1.2s1-0.4,1.6-0.4c1.4,0,2.3,0.6,2.7,1.7
			c0.3-0.5,0.7-1,1.3-1.3c0.5-0.3,1.1-0.4,1.7-0.4c1.9,0,2.9,1,2.9,3.1v5.9h-1v-5.8c0-0.8-0.2-1.4-0.5-1.8c-0.3-0.4-0.9-0.6-1.6-0.6
			c-0.7,0-1.3,0.2-1.8,0.7c-0.5,0.4-0.8,1-0.8,1.6v5.8h-1v-5.9c0-0.8-0.2-1.3-0.5-1.7c-0.4-0.4-0.9-0.6-1.6-0.6
			c-0.6,0-1.1,0.2-1.6,0.5c-0.4,0.4-0.8,0.9-1,1.6v6.1h-1v-8.8H408.5z"/>
		<path display="inline" fill="#231F20" d="M433.2,169.8c-0.8,0-1.4-0.2-2-0.6s-1.1-0.9-1.4-1.5s-0.5-1.4-0.5-2.2v-0.4
			c0-0.8,0.2-1.6,0.5-2.3c0.3-0.7,0.8-1.2,1.4-1.6c0.6-0.4,1.2-0.6,1.9-0.6c1.1,0,1.9,0.4,2.6,1.1s0.9,1.7,0.9,3v0.5h-6.3v0.2
			c0,1,0.3,1.8,0.9,2.5s1.3,1,2.2,1c0.5,0,1-0.1,1.4-0.3s0.8-0.5,1.1-0.9l0.6,0.5C435.6,169.3,434.6,169.8,433.2,169.8z
			 M433.1,161.5c-0.7,0-1.4,0.3-1.9,0.8s-0.8,1.3-0.9,2.2h5.3v-0.1c0-0.8-0.3-1.5-0.7-2.1C434.4,161.7,433.8,161.5,433.1,161.5z"/>
		<path display="inline" fill="#231F20" d="M446.7,160.8l0,1.5c0.3-0.5,0.7-1,1.2-1.2c0.5-0.3,1-0.4,1.6-0.4c0.9,0,1.7,0.3,2.1,0.8
			s0.7,1.3,0.7,2.4v5.8h-1v-5.8c0-0.8-0.2-1.4-0.5-1.8s-0.9-0.6-1.6-0.6c-0.6,0-1.1,0.2-1.6,0.6c-0.5,0.4-0.8,0.9-1,1.5v6.1h-1v-8.8
			H446.7z"/>
		<path display="inline" fill="#231F20" d="M463.9,158.5v2.3h1.8v0.8h-1.8v5.9c0,0.5,0.1,0.9,0.3,1.1c0.2,0.2,0.5,0.4,0.9,0.4
			c0.2,0,0.4,0,0.8-0.1l0,0.8c-0.3,0.1-0.6,0.1-1,0.1c-0.7,0-1.2-0.2-1.5-0.6c-0.3-0.4-0.5-1-0.5-1.7v-5.9h-1.6v-0.8h1.6v-2.3H463.9
			z"/>
	</g>
	<g display="none">
		<path display="inline" fill="#231F20" d="M524.7,169.6v-11.9h3.3c1,0,1.8,0.2,2.6,0.7c0.8,0.4,1.4,1.1,1.8,1.9
			c0.4,0.8,0.6,1.8,0.6,2.8v1.1c0,1.1-0.2,2-0.6,2.8c-0.4,0.8-1,1.5-1.8,1.9c-0.8,0.4-1.7,0.7-2.7,0.7H524.7z M525.7,158.6v10.2h2.3
			c1.3,0,2.3-0.4,3-1.2s1.1-2,1.1-3.4v-1c0-1.4-0.4-2.5-1.1-3.3c-0.7-0.8-1.7-1.2-2.9-1.2H525.7z"/>
		<path display="inline" fill="#231F20" d="M546.2,169.8c-0.8,0-1.4-0.2-2-0.6s-1.1-0.9-1.4-1.5s-0.5-1.4-0.5-2.2v-0.4
			c0-0.8,0.2-1.6,0.5-2.3c0.3-0.7,0.8-1.2,1.4-1.6c0.6-0.4,1.2-0.6,1.9-0.6c1.1,0,1.9,0.4,2.6,1.1s0.9,1.7,0.9,3v0.5h-6.3v0.2
			c0,1,0.3,1.8,0.9,2.5s1.3,1,2.2,1c0.5,0,1-0.1,1.4-0.3s0.8-0.5,1.1-0.9l0.6,0.5C548.6,169.3,547.5,169.8,546.2,169.8z M546,161.5
			c-0.7,0-1.4,0.3-1.9,0.8s-0.8,1.3-0.9,2.2h5.3v-0.1c0-0.8-0.3-1.5-0.7-2.1C547.3,161.7,546.7,161.5,546,161.5z"/>
		<path display="inline" fill="#231F20" d="M558.4,165.1c0-1.4,0.3-2.5,0.9-3.3c0.6-0.8,1.4-1.2,2.5-1.2c1.2,0,2.1,0.5,2.7,1.4v-5h1
			v12.5h-0.9l0-1.2c-0.6,0.9-1.5,1.3-2.8,1.3c-1,0-1.8-0.4-2.5-1.2c-0.6-0.8-0.9-1.9-0.9-3.3V165.1z M559.4,165.3
			c0,1.1,0.2,2,0.7,2.7s1.1,1,1.9,1c1.2,0,2.1-0.5,2.6-1.6v-4.1c-0.5-1.1-1.4-1.7-2.5-1.7c-0.8,0-1.5,0.3-1.9,1
			C559.6,163.1,559.4,164.1,559.4,165.3z"/>
		<path display="inline" fill="#231F20" d="M575.4,158.3c0-0.2,0.1-0.3,0.2-0.5c0.1-0.1,0.3-0.2,0.5-0.2s0.4,0.1,0.5,0.2
			c0.1,0.1,0.2,0.3,0.2,0.5c0,0.2-0.1,0.3-0.2,0.5c-0.1,0.1-0.3,0.2-0.5,0.2s-0.4-0.1-0.5-0.2C575.4,158.6,575.4,158.4,575.4,158.3z
			 M576.5,169.6h-1v-8.8h1V169.6z"/>
		<path display="inline" fill="#231F20" d="M589.8,169c0.7,0,1.3-0.2,1.7-0.6c0.5-0.4,0.7-0.9,0.7-1.5h0.9c0,0.5-0.2,1-0.5,1.5
			c-0.3,0.4-0.7,0.8-1.2,1c-0.5,0.3-1.1,0.4-1.7,0.4c-1.2,0-2.1-0.4-2.8-1.2s-1-1.9-1-3.3v-0.3c0-0.9,0.2-1.6,0.5-2.3
			c0.3-0.7,0.7-1.2,1.3-1.6c0.6-0.4,1.2-0.5,2-0.5c1,0,1.8,0.3,2.4,0.9s1,1.3,1,2.3h-0.9c0-0.7-0.3-1.2-0.7-1.7
			c-0.5-0.4-1-0.6-1.7-0.6c-0.9,0-1.6,0.3-2.1,1s-0.7,1.5-0.7,2.7v0.3c0,1.1,0.2,2,0.7,2.6C588.2,168.7,588.9,169,589.8,169z"/>
		<path display="inline" fill="#231F20" d="M608.1,169.6c-0.1-0.3-0.2-0.7-0.2-1.2c-0.3,0.4-0.8,0.8-1.3,1c-0.5,0.2-1.1,0.4-1.7,0.4
			c-0.8,0-1.5-0.2-2.1-0.7s-0.8-1.1-0.8-1.8c0-0.9,0.4-1.5,1.1-2s1.7-0.8,3-0.8h1.8v-1c0-0.6-0.2-1.1-0.6-1.5
			c-0.4-0.4-1-0.5-1.7-0.5c-0.7,0-1.2,0.2-1.7,0.5c-0.4,0.3-0.7,0.8-0.7,1.3l-1,0c0-0.7,0.3-1.3,1-1.8s1.5-0.8,2.4-0.8
			c1,0,1.8,0.2,2.3,0.7c0.6,0.5,0.9,1.2,0.9,2.1v4.2c0,0.9,0.1,1.5,0.3,1.9v0.1H608.1z M605,168.9c0.7,0,1.2-0.2,1.8-0.5
			s0.9-0.7,1.1-1.3v-1.9h-1.7c-1,0-1.7,0.2-2.3,0.5s-0.8,0.8-0.8,1.4c0,0.5,0.2,0.9,0.6,1.2C603.9,168.8,604.4,168.9,605,168.9z"/>
		<path display="inline" fill="#231F20" d="M620.3,158.5v2.3h1.8v0.8h-1.8v5.9c0,0.5,0.1,0.9,0.3,1.1c0.2,0.2,0.5,0.4,0.9,0.4
			c0.2,0,0.4,0,0.8-0.1l0,0.8c-0.3,0.1-0.6,0.1-1,0.1c-0.7,0-1.2-0.2-1.5-0.6c-0.3-0.4-0.5-1-0.5-1.7v-5.9h-1.6v-0.8h1.6v-2.3H620.3
			z"/>
		<path display="inline" fill="#231F20" d="M631.5,158.3c0-0.2,0.1-0.3,0.2-0.5c0.1-0.1,0.3-0.2,0.5-0.2s0.4,0.1,0.5,0.2
			c0.1,0.1,0.2,0.3,0.2,0.5c0,0.2-0.1,0.3-0.2,0.5c-0.1,0.1-0.3,0.2-0.5,0.2s-0.4-0.1-0.5-0.2C631.5,158.6,631.5,158.4,631.5,158.3z
			 M632.6,169.6h-1v-8.8h1V169.6z"/>
		<path display="inline" fill="#231F20" d="M642.1,165.1c0-0.8,0.2-1.6,0.5-2.3c0.3-0.7,0.8-1.2,1.4-1.6c0.6-0.4,1.3-0.6,2-0.6
			c1.2,0,2.1,0.4,2.9,1.2c0.7,0.8,1.1,1.9,1.1,3.3v0.2c0,0.9-0.2,1.6-0.5,2.3c-0.3,0.7-0.8,1.2-1.4,1.6s-1.3,0.6-2,0.6
			c-1.2,0-2.1-0.4-2.9-1.2c-0.7-0.8-1.1-1.9-1.1-3.3V165.1z M643.1,165.4c0,1.1,0.3,1.9,0.8,2.6c0.5,0.7,1.3,1,2.2,1
			c0.9,0,1.6-0.3,2.1-1c0.5-0.7,0.8-1.6,0.8-2.7v-0.2c0-0.7-0.1-1.3-0.4-1.9s-0.6-1-1.1-1.3s-1-0.5-1.6-0.5c-0.9,0-1.6,0.3-2.1,1
			s-0.8,1.6-0.8,2.7V165.4z"/>
		<path display="inline" fill="#231F20" d="M660.3,160.8l0,1.5c0.3-0.5,0.7-1,1.2-1.2c0.5-0.3,1-0.4,1.6-0.4c0.9,0,1.7,0.3,2.1,0.8
			s0.7,1.3,0.7,2.4v5.8h-1v-5.8c0-0.8-0.2-1.4-0.5-1.8s-0.9-0.6-1.6-0.6c-0.6,0-1.1,0.2-1.6,0.6c-0.5,0.4-0.8,0.9-1,1.5v6.1h-1v-8.8
			H660.3z"/>
	</g>
</g>
<g>
</g>
<g>
</g>
<g>
</g>
<g>
</g>
<g>
</g>
<g>
</g>
</svg>
